<?xml version="1.0" encoding="UTF-8"?>
<svg version="1.1" xmlns="http://www.w3.org/2000/svg" width="250" height="250">
<path d="M0 0 C0.74703011 -0.00367669 1.49406022 -0.00735338 2.26372761 -0.01114148 C4.76843097 -0.02215964 7.27309282 -0.02601902 9.77781677 -0.02983093 C11.57334525 -0.03609711 13.36887243 -0.04274405 15.16439819 -0.04974365 C21.06344197 -0.07077219 26.96248596 -0.08114651 32.86155701 -0.09111023 C34.89447989 -0.09515856 36.92740264 -0.09927551 38.96032524 -0.10346031 C48.51404812 -0.12251116 58.06776329 -0.13674111 67.62150151 -0.14507228 C78.63723092 -0.15483765 89.65275901 -0.18113936 100.66841751 -0.22157317 C109.19004501 -0.25177507 117.71161494 -0.26654512 126.2332949 -0.26985329 C131.31923128 -0.27219957 136.40495257 -0.28110477 141.49083138 -0.30631447 C146.28025006 -0.3296708 151.06931321 -0.3337981 155.85877419 -0.32355309 C157.6102441 -0.32305941 159.36173196 -0.32932981 161.11314774 -0.34310913 C174.51088507 -0.44256131 185.22802257 1.02634881 195.60765076 10.14717102 C196.51643982 10.89933899 196.51643982 10.89933899 197.44358826 11.66670227 C203.53262262 17.1308794 208.06760088 25.07040031 209.60765076 33.14717102 C209.70719642 35.620634 209.75547623 38.06608951 209.75482178 40.53952026 C209.75849847 41.28655037 209.76217515 42.03358048 209.76596326 42.80324787 C209.77698142 45.30795123 209.7808408 47.81261308 209.78465271 50.31733704 C209.79091889 52.11286551 209.79756583 53.90839269 209.80456543 55.70391846 C209.82559396 61.60296223 209.83596829 67.50200622 209.84593201 73.40107727 C209.84998034 75.43400015 209.85409728 77.4669229 209.85828209 79.4998455 C209.87733294 89.05356838 209.89156289 98.60728355 209.89989406 108.16102177 C209.90965942 119.17675118 209.93596114 130.19227927 209.97639495 141.20793778 C210.00659685 149.72956527 210.02136689 158.25113521 210.02467507 166.77281517 C210.02702135 171.85875155 210.03592655 176.94447284 210.06113625 182.03035164 C210.08449258 186.81977033 210.08861987 191.60883347 210.07837486 196.39829445 C210.07788119 198.14976436 210.08415158 199.90125222 210.09793091 201.652668 C210.19738309 215.05040534 208.72847297 225.76754284 199.60765076 236.14717102 C199.10620544 236.7530304 198.60476013 237.35888977 198.08811951 237.98310852 C192.62394238 244.07214289 184.68442147 248.60712114 176.60765076 250.14717102 C174.13418777 250.24671668 171.68873227 250.29499649 169.21530151 250.29434204 C168.09475635 250.29985707 168.09475635 250.29985707 166.95157391 250.30548352 C164.44687054 250.31650168 161.94220869 250.32036106 159.43748474 250.32417297 C157.64195627 250.33043915 155.84642909 250.33708609 154.05090332 250.34408569 C148.15185955 250.36511423 142.25281555 250.37548855 136.35374451 250.38545227 C134.32082162 250.3895006 132.28789888 250.39361755 130.25497627 250.39780235 C120.70125339 250.4168532 111.14753823 250.43108315 101.59380001 250.43941432 C90.5780706 250.44917969 79.5625425 250.47548141 68.546884 250.51591522 C60.0252565 250.54611711 51.50368657 250.56088716 42.98200661 250.56419533 C37.89607023 250.56654161 32.81034894 250.57544681 27.72447014 250.60065651 C22.93505145 250.62401284 18.14598831 250.62814014 13.35652733 250.61789513 C11.60505742 250.61740145 9.85356956 250.62367185 8.10215378 250.63745117 C-5.29558356 250.73690335 -16.01272106 249.26799323 -26.39234924 240.14717102 C-26.99820862 239.64572571 -27.60406799 239.1442804 -28.22828674 238.62763977 C-34.31732111 233.16346264 -38.85229937 225.22394173 -40.39234924 217.14717102 C-40.49189491 214.67370804 -40.54017471 212.22825253 -40.53952026 209.75482178 C-40.54319695 209.00779167 -40.54687364 208.26076156 -40.55066174 207.49109417 C-40.56167991 204.98639081 -40.56553928 202.48172896 -40.5693512 199.977005 C-40.57561737 198.18147653 -40.58226431 196.38594935 -40.58926392 194.59042358 C-40.61029245 188.69137981 -40.62066678 182.79233582 -40.63063049 176.89326477 C-40.63467883 174.86034189 -40.63879577 172.82741914 -40.64298058 170.79449654 C-40.66203143 161.24077366 -40.67626137 151.68705849 -40.68459255 142.13332027 C-40.69435791 131.11759086 -40.72065963 120.10206277 -40.76109344 109.08640426 C-40.79129534 100.56477677 -40.80606538 92.04320684 -40.80937356 83.52152687 C-40.81171984 78.43559049 -40.82062504 73.3498692 -40.84583473 68.2639904 C-40.86919106 63.47457171 -40.87331836 58.68550857 -40.86307335 53.89604759 C-40.86257968 52.14457768 -40.86885007 50.39308982 -40.88262939 48.64167404 C-40.98208157 35.24393671 -39.51317145 24.5267992 -30.39234924 14.14717102 C-29.89090393 13.54131165 -29.38945862 12.93545227 -28.87281799 12.31123352 C-21.29337708 3.86504388 -11.10656941 -0.00293871 0 0 Z " fill="#330000" transform="translate(40.39234924316406,-0.1471710205078125)"/>
<path d="M0 0 C1.56047445 0.00015913 3.12095416 0.00585397 4.68139648 0.01586914 C5.5012352 0.01728409 6.32107391 0.01869904 7.16575623 0.02015686 C9.79470406 0.0257725 12.42356797 0.0383276 15.05249023 0.05102539 C16.8304838 0.05603838 18.60847869 0.06060163 20.38647461 0.06469727 C24.75434569 0.07574701 29.12215371 0.09302208 33.48999023 0.11352539 C38.45922058 11.3911261 42.4770993 23.01331448 46.61499023 34.61352539 C48.20659274 39.06221296 49.8009069 43.50992448 51.39624023 47.95727539 C52.01228622 49.67527344 52.01228622 49.67527344 52.64077759 51.42797852 C55.69370018 59.92881364 58.78542813 68.41496737 61.89624023 76.89477539 C62.5548555 78.69090271 62.5548555 78.69090271 63.22677612 80.52331543 C64.9474465 85.21363237 66.66904737 89.90359137 68.39678955 94.59130859 C69.58932786 97.82692549 70.77819751 101.06387034 71.96655273 104.30102539 C72.32503296 105.26947388 72.68351318 106.23792236 73.05285645 107.23571777 C73.37580688 108.11707397 73.69875732 108.99843018 74.03149414 109.90649414 C74.31473541 110.67501709 74.59797668 111.44354004 74.88980103 112.23535156 C75.48999023 114.11352539 75.48999023 114.11352539 75.48999023 116.11352539 C63.93999023 116.11352539 52.38999023 116.11352539 40.48999023 116.11352539 C38.83999023 110.83352539 37.18999023 105.55352539 35.48999023 100.11352539 C13.70999023 99.61852539 13.70999023 99.61852539 -8.51000977 99.11352539 C-9.17000977 102.08352539 -9.83000977 105.05352539 -10.51000977 108.11352539 C-11.17000977 110.75352539 -11.83000977 113.39352539 -12.51000977 116.11352539 C-23.73000977 116.11352539 -34.95000977 116.11352539 -46.51000977 116.11352539 C-45.82537019 112.69032753 -45.17925861 109.93090886 -43.99804688 106.73022461 C-43.6888028 105.88680008 -43.37955872 105.04337555 -43.0609436 104.1743927 C-42.72315887 103.26485336 -42.38537415 102.35531403 -42.03735352 101.41821289 C-41.68248871 100.45384811 -41.3276239 99.48948334 -40.96200562 98.49589539 C-39.7941843 95.32540215 -38.62097361 92.1569341 -37.44750977 88.98852539 C-36.63436173 86.785408 -35.82145754 84.58220058 -35.00878906 82.37890625 C-32.92159177 76.7239834 -30.82925792 71.07097769 -28.73474121 65.41876221 C-27.55722498 62.24094718 -26.3806637 59.06278021 -25.2043457 55.88452148 C-23.08031022 50.14715042 -20.95228738 44.41126706 -18.82250977 38.67602539 C-18.50152313 37.81080261 -18.1805365 36.94557983 -17.849823 36.05413818 C-14.48922945 27.00098254 -11.09320917 17.96225719 -7.61547852 8.95336914 C-7.31813309 8.1784462 -7.02078766 7.40352325 -6.71443176 6.6051178 C-4.2024102 0.13591992 -4.2024102 0.13591992 0 0 Z " fill="#FC9800" transform="translate(88.510009765625,65.886474609375)"/>
<path d="M0 0 C10.23 0 20.46 0 31 0 C31 30.03 31 60.06 31 91 C20.77 91 10.54 91 0 91 C0 60.97 0 30.94 0 0 Z " fill="#FD9900" transform="translate(168,91)"/>
<path d="M0 0 C3.55054957 1.98830776 6.28232607 3.71353799 7.875 7.5625 C8.55044802 13.47267017 8.50034804 17.68697794 5.125 22.75 C-0.74249352 27.27285959 -5.61606535 28.57220943 -12.875 27.75 C-17.39511889 26.4336145 -20.77525184 24.48628052 -23.375 20.5 C-25.34212782 16.39888976 -25.44723655 13.25636279 -24.875 8.75 C-22.79205365 4.41747159 -20.25413809 1.65931116 -15.9296875 -0.55859375 C-10.70521175 -2.31663977 -5.11144617 -1.98534712 0 0 Z " fill="#FA9600" transform="translate(191.875,61.25)"/>
<path d="M0 0 C2.59273666 2.59273666 3.29773719 5.42467464 4.3828125 8.8359375 C4.71150833 9.8495787 4.71150833 9.8495787 5.04684448 10.88369751 C5.50868554 12.31342351 5.96744092 13.7441494 6.42333984 15.17578125 C7.12096764 17.36236133 7.83122611 19.54454181 8.54296875 21.7265625 C8.99035039 23.11694092 9.43698959 24.50755849 9.8828125 25.8984375 C10.09527618 26.54960541 10.30773987 27.20077332 10.52664185 27.87167358 C11.5553606 31.13107423 12 33.53064004 12 37 C4.08 37 -3.84 37 -12 37 C-9.78306786 28.8712488 -7.44781795 20.88560535 -4.875 12.875 C-4.51535156 11.740625 -4.15570313 10.60625 -3.78515625 9.4375 C-3.44097656 8.36242187 -3.09679687 7.28734375 -2.7421875 6.1796875 C-2.27594971 4.72151611 -2.27594971 4.72151611 -1.80029297 3.23388672 C-1 1 -1 1 0 0 Z " fill="#3D0700" transform="translate(102,99)"/>
</svg>
